<?xml version="1.0" encoding="UTF-8" standalone="no"?>
<svg
   xmlns:dc="http://purl.org/dc/elements/1.1/"
   xmlns:cc="http://creativecommons.org/ns#"
   xmlns:rdf="http://www.w3.org/1999/02/22-rdf-syntax-ns#"
   xmlns:svg="http://www.w3.org/2000/svg"
   xmlns="http://www.w3.org/2000/svg"
   xmlns:sodipodi="http://sodipodi.sourceforge.net/DTD/sodipodi-0.dtd"
   xmlns:inkscape="http://www.inkscape.org/namespaces/inkscape"
   sodipodi:docname="abap-openapi.svg"
   inkscape:version="1.0 (4035a4fb49, 2020-05-01)"
   id="svg2795"
   version="1.1"
   viewBox="0 0 211.66666 211.66667"
   height="800"
   width="800">
  <defs
     id="defs2789" />
  <sodipodi:namedview
     inkscape:window-maximized="1"
     inkscape:window-y="-8"
     inkscape:window-x="-8"
     inkscape:window-height="1017"
     inkscape:window-width="1920"
     units="px"
     showgrid="false"
     inkscape:document-rotation="0"
     inkscape:current-layer="layer1"
     inkscape:document-units="mm"
     inkscape:cy="208.57837"
     inkscape:cx="543.91134"
     inkscape:zoom="0.7"
     inkscape:pageshadow="2"
     inkscape:pageopacity="0.0"
     borderopacity="1.0"
     bordercolor="#666666"
     pagecolor="#ffffff"
     id="base" />
  <metadata
     id="metadata2792">
    <rdf:RDF>
      <cc:Work
         rdf:about="">
        <dc:format>image/svg+xml</dc:format>
        <dc:type
           rdf:resource="http://purl.org/dc/dcmitype/StillImage" />
        <dc:title></dc:title>
      </cc:Work>
    </rdf:RDF>
  </metadata>
  <g
     id="layer1"
     inkscape:groupmode="layer"
     inkscape:label="Layer 1">
    <g
       style="fill:#1854c2;fill-opacity:1"
       transform="matrix(1.9183802,0,0,1.9183802,-91.124955,-16.4174)"
       id="g2831">
      <g
         style="fill:#1854c2;fill-opacity:1"
         fill="#93d500"
         id="g2819">
        <path
           style="fill:#1854c2;fill-opacity:1"
           d="m 77.97,108.03 0.034,-0.02 -0.001,-0.001 -0.033,0.02 z m -0.015,0.01 h 0.001 z"
           id="path2805" />
        <path
           style="fill:#1854c2;fill-opacity:1"
           d="m 78.003,108 0.2,-0.1 -0.004,-0.007 -0.196,0.117 z m -0.043,0.035 0.01,-0.005 z"
           id="path2807" />
        <path
           style="fill:#1854c2;fill-opacity:1"
           d="m 77.955,108.04 h 0.001 l -0.037,-0.062 z m 0.015,-0.01 0.034,-0.018 z m -0.02,0.01 -0.01,0.005 0.01,-0.004 z"
           id="path2809" />
        <path
           style="fill:#1854c2;fill-opacity:1"
           d="m 77.95,108.04 v 10e-4 l 0.005,-0.003 h -0.001 z"
           id="path2811" />
        <path
           style="fill:#1854c2;fill-opacity:1"
           d="m 77.96,108.035 -0.006,0.003 0.015,-0.01 z m 0.044,-0.023 0.198,-0.112 z m 0.198,-0.112 -0.004,-0.007 z m -0.268,0.15 h 0.002 z"
           id="path2813" />
        <path
           style="fill:#1854c2;fill-opacity:1"
           d="m 77.942,108.047 -0.006,0.003 z"
           id="path2815" />
        <path
           style="fill:#1854c2;fill-opacity:1"
           d="m 119.33422,116.54303 9.23865,-26.949466 -0.93486,-0.356485 -0.92066,-0.397121 a 20.15,20.15 0 0 1 -7.04462,-5.357132 20.1,20.1 0 0 1 -3.04894,-4.937283 l -0.35311,-0.937318 -0.35017,-0.938479 -28.102134,8.925989 0.02973,0.0821 0.03,0.08709 6.42e-4,7.66e-4 0.0065,0.02328 0.753221,2.181125 a 49.94,49.94 0 0 0 4.649651,9.309202 17.83,17.83 0 0 1 0.21832,0.344192 l 0.683602,1.021597 0.114249,0.162604 0.567117,0.803433 0.198727,0.267948 0.51321,0.689408 0.322785,0.41579 0.419996,0.53787 0.771425,0.94268 a 49.76,49.76 0 0 0 5.817579,5.8659 l 0.10402,0.0928 0.67564,0.56095 0.39417,0.32196 0.4058,0.31871 0.68295,0.5261 0.12452,0.0939 a 49.85,49.85 0 0 0 11.04541,6.26222 l 0.001,1.3e-4 0.77566,0.30209 1.59366,0.59868 0.0382,-0.0634 -0.0245,0.0688 0.0523,0.0188 0.21497,0.0742 z m 19.50426,-65.718241 0.86169,0.186827 0.0332,-0.09576 9.55245,-27.858959 -2.44025,-0.674159 c -1.77376,-0.430589 -3.58855,-0.765395 -5.43757,-1.000984 l -2.55879,29.328273 z"
           id="path2817" />
      </g>
      <path
         style="fill:#1854c2;fill-opacity:1"
         d="m 140.19719,33.084272 -1.18272,-1.613896 c -1.37263,-1.803758 -2.83712,-3.489678 -4.40929,-5.054454 l -0.22444,-0.224383 -0.54206,-0.525104 -0.57136,-0.537381 -0.20927,-0.195305 A 49.48,49.48 0 0 0 110.14229,13.074295 l -0.98012,-0.200238 -0.98186,-0.19039 -5.12054,29.040012 0.97648,0.220919 0.97525,0.227812 a 20.01,20.01 0 0 1 9.80462,6.244422 c 0.21739,0.241415 0.41085,0.526338 0.61503,0.790811 0.20417,0.264473 0.42132,0.512956 0.61438,0.788668 z m -3.35648,61.189762 0.0931,-0.10747 0.5939,-0.690358 0.33541,-0.404909 0.33199,-0.408557 0.56435,-0.71283 0.0869,-0.112625 c 1.19068,-1.54674 2.28281,-3.15655 3.287,-4.820452 l 0.0775,-0.128496 0.6348,-1.10658 c 1.66706,-2.975727 3.02267,-6.120098 4.04755,-9.375587 l 0.12721,-0.398971 0.11736,-0.400708 0.2246,-0.772739 0.0586,-0.217124 0.24427,-0.92463 0.28027,-1.169093 0.0921,-0.424454 -29.11092,-5.13304 c -0.41803,1.46669 -0.99712,2.890768 -1.73778,4.240662 l 17.63374,25.207019 a 48.97,48.97 0 0 0 2.01735,-2.146299 z"
         fill="#4d5a31"
         id="path2821" />
      <path
         style="fill:#1854c2;fill-opacity:1"
         d="m 75.191885,17.685529 -0.516,-0.857 z m -0.53,-0.86 0.003,0.005 z m 24.606,-7.0949996 -1,0.02 c -2.086,0.084 -4.168,0.2969996 -6.233,0.6429996 l -0.136,0.023 -0.865,0.157 -0.5,0.094 -0.508,0.106 -0.84,0.184 -0.153,0.034 a 49.89,49.89 0 0 0 -11.898,4.438 l -2.47,1.394 0.003,0.005 15.22,25.27 0.874,-0.487 a 19.71,19.71 0 0 1 0.895,-0.451 20.05,20.05 0 0 1 6.601,-1.85 l 1,-0.08 1.000005,-0.034 10e-4,-29.4869996 c -0.334005,-10e-4 -0.667005,0.013 -1.000005,0.02 z"
         fill="#6ba43a"
         id="path2823" />
      <path
         style="fill:#1854c2;fill-opacity:1"
         d="m 89.335985,59.219557 -0.048,-0.795 -0.026,-0.397 -0.077,-0.934 -0.02,-0.242 -0.11,-1.043 -0.01,-0.084 -0.005,-0.04 -0.15,-1.124 c -10e-4,-0.01 -0.002,-0.025 -0.005,-0.035 a 49.56,49.56 0 0 0 -1.524,-6.972 l -0.014,-0.044 -0.328,-1.063 -0.045,-0.14 -0.32,-0.954 -0.09,-0.258 -0.3,-0.823 -0.15,-0.39 -0.265,-0.678 -0.218,-0.534 -0.22,-0.526 -0.294,-0.67 -0.17,-0.378 -0.373,-0.797 -0.116,-0.242 -0.448,-0.906 -0.065,-0.125 -0.52,-1 c -0.007,-0.01 -0.012,-0.024 -0.02,-0.035 -0.86,-1.58 -1.802,-3.108 -2.822,-4.578 l -21.765,21.767 a 20.5,20.5 0 0 1 0.974,4.477 h 29.56 z"
         fill="#4d5a31"
         id="path2825" />
      <path
         style="fill:#1854c2;fill-opacity:1"
         d="m 59.439179,64.782926 -0.048,1 -0.055,1 c -0.38,3.84 -1.863,7.6 -4.446,10.74 -0.2,0.256 -0.447,0.496 -0.672,0.743 -0.225,0.247 -0.432,0.504 -0.67,0.742 l 20.85,20.85 c 0.237,-0.237 0.46,-0.482 0.69,-0.723 l 0.69,-0.723 c 1.543,-1.67 2.953,-3.42 4.224,-5.236 l 0.148,-0.214 0.458,-0.673 0.395,-0.605 0.2,-0.295 c 4.782,-7.51 7.34,-16.02 7.685,-24.607 l 0.027,-1 0.017,-1 h -29.493 z"
         fill="#6ba43a"
         id="path2827" />
    </g>
  </g>
</svg>
